<?xml version="1.0" encoding="utf-8"?>
<!-- Generator: Adobe Illustrator 16.0.0, SVG Export Plug-In . SVG Version: 6.00 Build 0)  -->
<!DOCTYPE svg PUBLIC "-//W3C//DTD SVG 1.1//EN" "http://www.w3.org/Graphics/SVG/1.1/DTD/svg11.dtd">
<svg version="1.1" id="Layer_1" xmlns="http://www.w3.org/2000/svg" xmlns:xlink="http://www.w3.org/1999/xlink" x="20px" y="20px"
	 width="65px" height="55px" viewBox="0 0 255 230"  xml:space="preserve">
<polygon fill-rule="evenodd" clip-rule="evenodd" fill="#5D0000" points="20.61,96.526 68.903,104.182 118.291,94.951 
	81.004,79.922 "/>
<polygon fill-rule="evenodd" clip-rule="evenodd" fill="#B6B0A8" points="64.819,199.415 113.077,169.515 108.352,96.826 
	67.972,83.53 "/>
<polygon fill-rule="evenodd" clip-rule="evenodd" fill="#A70000" points="81.004,79.922 118.291,94.951 113.356,38.789 80.753,2 "/>
<polygon fill-rule="evenodd" clip-rule="evenodd" fill="#FF0000" points="80.753,2 29.199,32.282 20.61,96.526 81.004,79.922 "/>
<polygon fill-rule="evenodd" clip-rule="evenodd" fill="#F5F5F5" points="67.972,83.53 13.018,98.632 0,185.325 64.819,199.415 "/>
<polygon fill-rule="evenodd" clip-rule="evenodd" fill="#008837" points="242.103,57.6 106.454,39.49 67.152,138.725 
	186.072,228.914 "/>
<polygon fill-rule="evenodd" clip-rule="evenodd" fill="#136423" points="186.072,228.914 242.103,57.6 227.324,126.879 
	213.654,169.095 "/>
<path fill-rule="evenodd" clip-rule="evenodd" fill="#F5F5F5" d="M43.584,53.955c-0.161,0.061-0.313,0.122-0.47,0.184
	c0.021-0.19,0.042-0.375,0.068-0.565c0.207-1.764,0.491-4.325,0.766-6.981c0.284-2.71,0.563-5.517,0.762-7.69
	c0.021-0.197,0.038-0.381,0.055-0.572c0.148-0.068,0.31-0.15,0.466-0.225c0.242-0.116,0.508-0.246,0.809-0.396
	c1.198-0.585,2.938-1.43,4.776-2.207c2.519-1.056,5.271-1.982,7.325-1.975c2.062,0.007,3.425,0.96,3.146,3.583
	c-0.089,0.845-0.424,1.887-0.961,3.031c-0.5,1.076-1.194,2.241-2.024,3.399c-2.146,2.956-4.61,5.115-7.159,6.757
	C48.623,51.911,46.031,53.055,43.584,53.955 M41.891,61.958c0.152-0.061,0.309-0.116,0.461-0.17
	c3.082-1.117,6.245-2.541,9.302-4.243c3.057-1.703,6.008-3.712,8.671-5.96c4.56-3.923,8.252-8.603,10.153-13.765
	c0.555-1.54,0.847-2.983,0.944-4.318c0.11-1.512-0.047-2.881-0.36-4.046c-0.292-1.11-0.736-2.037-1.308-2.82
	c-0.576-0.77-1.283-1.383-2.112-1.859c-0.839-0.477-1.795-0.79-2.858-0.954l0,0c-1.059-0.157-2.219-0.164-3.472-0.007
	c-1.253,0.157-2.608,0.483-4.119,0.987c-1.512,0.525-3.167,1.22-5.03,2.139c-1.74,0.858-3.646,1.887-5.454,2.929
	c-2.091,1.206-4.073,2.404-5.517,3.344c-5.44,3.508-5.809,6.185-6.52,11.307c-0.093,0.681-0.195,1.396-0.305,2.098
	c-0.373,2.465-0.885,5.824-1.406,9.311c-0.521,3.528-1.054,7.213-1.469,10.326c-0.398,2.997-0.682,5.497-0.88,7.547
	c-0.212,2.248-0.313,3.971-0.331,5.224c-0.008,1.165,0.051,1.914,0.19,2.397c0.131,0.436,0.326,0.667,0.593,0.817
	c0.284,0.17,0.652,0.266,1.088,0.286c0.453,0.034,0.978-0.021,1.554-0.15c0.601-0.136,1.262-0.354,1.909-0.634
	c0.614-0.272,1.215-0.599,1.736-0.96c0.525-0.368,0.987-0.783,1.376-1.192c0.398-0.422,0.72-0.831,0.961-1.171
	c0.212-0.293,0.381-0.702,0.529-1.267c0.169-0.62,0.3-1.41,0.411-2.391c0.076-0.695,0.165-1.71,0.271-2.949
	c0.203-2.452,0.491-5.803,0.919-9.311C41.84,62.318,41.865,62.142,41.891,61.958z"/>
</svg>
